<svg xmlns="http://www.w3.org/2000/svg" xmlns:xlink="http://www.w3.org/1999/xlink" width="153" zoomAndPan="magnify" viewBox="0 0 114.75 114.749999" height="153" preserveAspectRatio="xMidYMid meet" version="1.0"><defs><clipPath id="ba42c5e8cc"><path d="M 2 2 L 114.5 2 L 114.5 112 L 2 112 Z M 2 2 " clip-rule="nonzero"/></clipPath><clipPath id="bc85d9f6a3"><path d="M 0.371094 0.714844 L 112.5 0.714844 L 112.5 109.785156 L 0.371094 109.785156 Z M 0.371094 0.714844 " clip-rule="nonzero"/></clipPath><clipPath id="49721bd861"><path d="M 56.4375 0.714844 C 25.472656 0.714844 0.371094 25.132812 0.371094 55.25 C 0.371094 85.367188 25.472656 109.785156 56.4375 109.785156 C 87.398438 109.785156 112.5 85.367188 112.5 55.25 C 112.5 25.132812 87.398438 0.714844 56.4375 0.714844 Z M 56.4375 0.714844 " clip-rule="nonzero"/></clipPath><clipPath id="5230ff564a"><path d="M 0.371094 0.714844 L 112.5 0.714844 L 112.5 109.785156 L 0.371094 109.785156 Z M 0.371094 0.714844 " clip-rule="nonzero"/></clipPath><clipPath id="f82c693743"><path d="M 56.4375 0.714844 C 25.472656 0.714844 0.371094 25.132812 0.371094 55.25 C 0.371094 85.367188 25.472656 109.785156 56.4375 109.785156 C 87.398438 109.785156 112.5 85.367188 112.5 55.25 C 112.5 25.132812 87.398438 0.714844 56.4375 0.714844 Z M 56.4375 0.714844 " clip-rule="nonzero"/></clipPath><clipPath id="5a0f6dceba"><rect x="0" width="113" y="0" height="110"/></clipPath><clipPath id="fd61ec05fa"><path d="M 0.0742188 0.664062 L 82.820312 0.664062 L 82.820312 43.707031 L 0.0742188 43.707031 Z M 0.0742188 0.664062 " clip-rule="nonzero"/></clipPath><clipPath id="b2b1932586"><path d="M 28.316406 0.832031 C 29.816406 0.878906 31.355469 1.511719 32.550781 2.707031 C 33.484375 3.640625 34.070312 4.765625 34.3125 5.929688 C 34.898438 8.773438 33.398438 11.878906 30.160156 11.878906 C 27.152344 11.878906 24.710938 9.054688 24.710938 5.578125 L 0.0742188 5.578125 C 0.339844 6.898438 0.738281 8.171875 1.269531 9.398438 L 21.570312 9.398438 C 21.90625 10.300781 22.351562 11.128906 22.898438 11.878906 L 2.542969 11.878906 C 3.363281 13.238281 4.347656 14.519531 5.472656 15.699219 L 30.160156 15.699219 C 33.101562 15.699219 35.726562 14.207031 37.421875 11.878906 L 40.324219 11.878906 C 38.34375 15.558594 34.65625 18.179688 30.160156 18.179688 L 8.210938 18.179688 C 10.1875 19.71875 12.453125 21.015625 14.925781 22 L 19.304688 22 L 11.898438 29.402344 C 12.832031 30.265625 13.863281 31.046875 14.988281 31.726562 L 24.703125 22.007812 L 28.214844 22.007812 L 17.285156 32.929688 C 18.558594 33.5 19.921875 33.953125 21.351562 34.273438 L 33.625 22 L 37.125 22 L 24.367188 34.757812 C 25.09375 34.828125 25.835938 34.859375 26.582031 34.859375 C 27.714844 34.859375 28.824219 34.78125 29.902344 34.625 L 41.433594 23.101562 L 52.972656 34.632812 C 54.050781 34.78125 55.160156 34.867188 56.292969 34.867188 C 57.042969 34.867188 57.777344 34.828125 58.503906 34.765625 L 45.746094 22.007812 L 49.25 22.007812 L 61.523438 34.28125 C 62.945312 33.953125 64.304688 33.5 65.578125 32.9375 L 54.660156 22.007812 L 58.160156 22.007812 L 67.886719 31.734375 C 69.011719 31.054688 70.042969 30.273438 70.972656 29.410156 L 63.570312 22.007812 L 67.941406 22.007812 C 70.410156 21.015625 72.671875 19.726562 74.65625 18.1875 L 52.714844 18.1875 C 48.210938 18.1875 44.527344 15.566406 42.550781 11.886719 L 45.449219 11.886719 C 47.109375 14.152344 49.625 15.628906 52.46875 15.707031 C 52.628906 15.714844 52.785156 15.714844 52.933594 15.714844 C 53.136719 15.714844 53.332031 15.714844 53.535156 15.714844 L 77.398438 15.714844 C 78.523438 14.535156 79.511719 13.253906 80.332031 11.894531 L 59.976562 11.894531 C 60.523438 11.144531 60.96875 10.316406 61.304688 9.414062 L 81.605469 9.414062 C 82.136719 8.1875 82.535156 6.90625 82.800781 5.59375 L 58.160156 5.59375 C 58.160156 7.398438 57.535156 9.0625 56.332031 10.285156 C 55.410156 11.222656 54.253906 11.675781 53.144531 11.675781 C 51.664062 11.675781 50.265625 10.871094 49.578125 9.335938 C 49.414062 8.960938 49.320312 8.554688 49.320312 8.125 C 49.320312 6.75 50.390625 5.625 52.09375 5.625 C 52.117188 5.625 52.148438 5.625 52.171875 5.625 C 52.738281 5.632812 53.300781 5.773438 53.808594 6 C 54.597656 4.578125 54.277344 2.957031 52.800781 1.878906 C 51.851562 1.175781 50.585938 0.832031 49.28125 0.832031 C 49.226562 0.832031 49.179688 0.832031 49.125 0.832031 Z M 41.433594 35.515625 L 38.726562 38.222656 L 33.40625 43.546875 L 38.8125 43.546875 L 41.433594 40.925781 L 44.050781 43.546875 L 49.460938 43.546875 L 44.136719 38.222656 Z M 41.433594 26.605469 L 41.332031 26.699219 L 24.5 43.546875 L 29.910156 43.546875 L 41.433594 32.007812 L 52.964844 43.546875 L 58.371094 43.546875 L 41.535156 26.699219 L 41.441406 26.605469 Z M 41.433594 26.605469 " clip-rule="nonzero"/></clipPath><clipPath id="3aff3fb6de"><path d="M 0.0742188 0.664062 L 82.820312 0.664062 L 82.820312 43.707031 L 0.0742188 43.707031 Z M 0.0742188 0.664062 " clip-rule="nonzero"/></clipPath><clipPath id="af9e25b009"><path d="M 28.316406 0.832031 C 29.816406 0.878906 31.355469 1.511719 32.550781 2.707031 C 33.484375 3.640625 34.070312 4.765625 34.3125 5.929688 C 34.898438 8.773438 33.398438 11.878906 30.160156 11.878906 C 27.152344 11.878906 24.710938 9.054688 24.710938 5.578125 L 0.0742188 5.578125 C 0.339844 6.898438 0.738281 8.171875 1.269531 9.398438 L 21.570312 9.398438 C 21.90625 10.300781 22.351562 11.128906 22.898438 11.878906 L 2.542969 11.878906 C 3.363281 13.238281 4.347656 14.519531 5.472656 15.699219 L 30.160156 15.699219 C 33.101562 15.699219 35.726562 14.207031 37.421875 11.878906 L 40.324219 11.878906 C 38.34375 15.558594 34.65625 18.179688 30.160156 18.179688 L 8.210938 18.179688 C 10.1875 19.71875 12.453125 21.015625 14.925781 22 L 19.304688 22 L 11.898438 29.402344 C 12.832031 30.265625 13.863281 31.046875 14.988281 31.726562 L 24.703125 22.007812 L 28.214844 22.007812 L 17.285156 32.929688 C 18.558594 33.5 19.921875 33.953125 21.351562 34.273438 L 33.625 22 L 37.125 22 L 24.367188 34.757812 C 25.09375 34.828125 25.835938 34.859375 26.582031 34.859375 C 27.714844 34.859375 28.824219 34.78125 29.902344 34.625 L 41.433594 23.101562 L 52.972656 34.632812 C 54.050781 34.78125 55.160156 34.867188 56.292969 34.867188 C 57.042969 34.867188 57.777344 34.828125 58.503906 34.765625 L 45.746094 22.007812 L 49.25 22.007812 L 61.523438 34.28125 C 62.945312 33.953125 64.304688 33.5 65.578125 32.9375 L 54.660156 22.007812 L 58.160156 22.007812 L 67.886719 31.734375 C 69.011719 31.054688 70.042969 30.273438 70.972656 29.410156 L 63.570312 22.007812 L 67.941406 22.007812 C 70.410156 21.015625 72.671875 19.726562 74.65625 18.1875 L 52.714844 18.1875 C 48.210938 18.1875 44.527344 15.566406 42.550781 11.886719 L 45.449219 11.886719 C 47.109375 14.152344 49.625 15.628906 52.46875 15.707031 C 52.628906 15.714844 52.785156 15.714844 52.933594 15.714844 C 53.136719 15.714844 53.332031 15.714844 53.535156 15.714844 L 77.398438 15.714844 C 78.523438 14.535156 79.511719 13.253906 80.332031 11.894531 L 59.976562 11.894531 C 60.523438 11.144531 60.96875 10.316406 61.304688 9.414062 L 81.605469 9.414062 C 82.136719 8.1875 82.535156 6.90625 82.800781 5.59375 L 58.160156 5.59375 C 58.160156 7.398438 57.535156 9.0625 56.332031 10.285156 C 55.410156 11.222656 54.253906 11.675781 53.144531 11.675781 C 51.664062 11.675781 50.265625 10.871094 49.578125 9.335938 C 49.414062 8.960938 49.320312 8.554688 49.320312 8.125 C 49.320312 6.75 50.390625 5.625 52.09375 5.625 C 52.117188 5.625 52.148438 5.625 52.171875 5.625 C 52.738281 5.632812 53.300781 5.773438 53.808594 6 C 54.597656 4.578125 54.277344 2.957031 52.800781 1.878906 C 51.851562 1.175781 50.585938 0.832031 49.28125 0.832031 C 49.226562 0.832031 49.179688 0.832031 49.125 0.832031 Z M 41.433594 35.515625 L 38.726562 38.222656 L 33.40625 43.546875 L 38.8125 43.546875 L 41.433594 40.925781 L 44.050781 43.546875 L 49.460938 43.546875 L 44.136719 38.222656 Z M 41.433594 26.605469 L 41.332031 26.699219 L 24.5 43.546875 L 29.910156 43.546875 L 41.433594 32.007812 L 52.964844 43.546875 L 58.371094 43.546875 L 41.535156 26.699219 L 41.441406 26.605469 Z M 41.433594 26.605469 " clip-rule="nonzero"/></clipPath><clipPath id="b951dd037f"><rect x="0" width="83" y="0" height="44"/></clipPath><clipPath id="66328a3bd2"><path d="M 0.804688 46.96875 L 82.140625 46.96875 L 82.140625 63.734375 L 0.804688 63.734375 Z M 0.804688 46.96875 " clip-rule="nonzero"/></clipPath><clipPath id="4cb2d73ad9"><path d="M 14.359375 54.855469 L 10.34375 54.855469 C 10.34375 54.855469 11.277344 55.488281 11.277344 57.125 L 11.277344 61.664062 C 10.753906 61.828125 10.109375 61.9375 9.34375 61.9375 C 6.855469 61.9375 4.007812 60.097656 4.007812 55.316406 C 4.007812 50.371094 6.515625 48.710938 8.859375 48.710938 C 11.460938 48.710938 13.488281 50.871094 13.488281 50.871094 L 13.488281 47.695312 C 13.488281 47.695312 11.625 46.96875 8.726562 46.96875 C 4.816406 46.96875 0.804688 49.570312 0.804688 55.304688 C 0.804688 61.34375 5.226562 63.667969 9.023438 63.667969 C 11.921875 63.667969 14.769531 63.097656 14.769531 63.097656 C 14.769531 63.097656 14.359375 62.460938 14.359375 60.363281 Z M 71.683594 57.425781 L 73.917969 50.183594 L 76.167969 57.425781 Z M 77.132812 63.433594 L 82.078125 63.433594 C 82.078125 63.433594 80.941406 62.820312 80.417969 61.179688 L 76.414062 48.957031 C 76.078125 47.902344 75.09375 47.195312 74.007812 47.195312 L 72.0625 47.195312 C 72.0625 47.195312 72.789062 47.808594 72.269531 49.449219 L 68.46875 61.179688 C 68.082031 62.339844 67.394531 62.992188 67.035156 63.269531 C 66.738281 62.992188 66.21875 62.339844 66.125 61.179688 L 65.101562 49.449219 C 64.9375 47.808594 65.828125 47.195312 65.828125 47.195312 L 61.558594 47.195312 C 61.628906 47.902344 61.539062 48.628906 61.242188 49.292969 L 57.09375 59.359375 L 52.128906 47.195312 L 48.277344 47.195312 C 48.277344 47.195312 49.171875 47.808594 49.027344 49.449219 L 48.003906 61.179688 C 47.902344 62.390625 47.328125 63.046875 47.03125 63.300781 C 46.742188 63.046875 46.179688 62.390625 46.078125 61.179688 L 45.054688 49.449219 C 44.890625 47.808594 45.78125 47.195312 45.78125 47.195312 L 41.542969 47.195312 C 41.613281 47.902344 41.523438 48.628906 41.226562 49.292969 L 37.078125 59.359375 L 32.101562 47.195312 L 28.253906 47.195312 C 28.253906 47.195312 29.144531 47.808594 29 49.449219 L 28.027344 60.640625 C 27.925781 60.722656 26.613281 61.703125 24.1875 61.703125 C 23.503906 61.703125 19.34375 61.703125 19.34375 61.703125 L 19.34375 55.804688 L 21.875 55.804688 C 23.859375 55.804688 24.699219 56.441406 24.699219 56.441406 L 25.070312 54.074219 L 19.34375 54.074219 L 19.34375 48.925781 C 19.34375 48.925781 21.1875 48.925781 22.558594 48.925781 C 24.90625 48.925781 26 49.910156 26 49.910156 L 26 47.195312 L 15.34375 47.195312 C 15.34375 47.195312 16.273438 47.808594 16.273438 49.449219 L 16.273438 61.179688 C 16.273438 62.820312 15.34375 63.433594 15.34375 63.433594 L 30.761719 63.433594 C 30.761719 63.433594 29.890625 62.820312 30.035156 61.179688 L 30.851562 51.75 L 35 61.867188 C 35.410156 62.820312 36.339844 63.445312 37.394531 63.445312 L 42.15625 51.894531 L 42.976562 61.191406 C 43.109375 62.828125 42.25 63.445312 42.25 63.445312 L 50.796875 63.445312 C 50.796875 63.445312 49.925781 62.828125 50.070312 61.191406 L 50.890625 51.761719 L 55.035156 61.878906 C 55.445312 62.828125 56.378906 63.453125 57.433594 63.453125 L 62.183594 51.894531 L 63.003906 61.191406 C 63.136719 62.828125 62.273438 63.445312 62.273438 63.445312 L 70.703125 63.445312 C 70.703125 63.445312 69.976562 62.828125 70.515625 61.191406 L 71.203125 58.960938 L 76.628906 58.960938 L 77.335938 61.191406 C 77.859375 62.828125 77.132812 63.445312 77.132812 63.445312 " clip-rule="nonzero"/></clipPath><clipPath id="e8b65ad7b3"><path d="M 0.804688 0.96875 L 82.140625 0.96875 L 82.140625 17.734375 L 0.804688 17.734375 Z M 0.804688 0.96875 " clip-rule="nonzero"/></clipPath><clipPath id="2e17fa4f4a"><path d="M 14.359375 8.855469 L 10.34375 8.855469 C 10.34375 8.855469 11.277344 9.488281 11.277344 11.125 L 11.277344 15.664062 C 10.753906 15.828125 10.109375 15.9375 9.34375 15.9375 C 6.855469 15.9375 4.007812 14.097656 4.007812 9.316406 C 4.007812 4.371094 6.515625 2.710938 8.859375 2.710938 C 11.460938 2.710938 13.488281 4.871094 13.488281 4.871094 L 13.488281 1.695312 C 13.488281 1.695312 11.625 0.96875 8.726562 0.96875 C 4.816406 0.96875 0.804688 3.570312 0.804688 9.304688 C 0.804688 15.34375 5.226562 17.667969 9.023438 17.667969 C 11.921875 17.667969 14.769531 17.097656 14.769531 17.097656 C 14.769531 17.097656 14.359375 16.460938 14.359375 14.363281 Z M 71.683594 11.425781 L 73.917969 4.183594 L 76.167969 11.425781 Z M 77.132812 17.433594 L 82.078125 17.433594 C 82.078125 17.433594 80.941406 16.820312 80.417969 15.179688 L 76.414062 2.957031 C 76.078125 1.902344 75.09375 1.195312 74.007812 1.195312 L 72.0625 1.195312 C 72.0625 1.195312 72.789062 1.808594 72.269531 3.449219 L 68.46875 15.179688 C 68.082031 16.339844 67.394531 16.992188 67.035156 17.269531 C 66.738281 16.992188 66.21875 16.339844 66.125 15.179688 L 65.101562 3.449219 C 64.9375 1.808594 65.828125 1.195312 65.828125 1.195312 L 61.558594 1.195312 C 61.628906 1.902344 61.539062 2.628906 61.242188 3.292969 L 57.09375 13.359375 L 52.128906 1.195312 L 48.277344 1.195312 C 48.277344 1.195312 49.171875 1.808594 49.027344 3.449219 L 48.003906 15.179688 C 47.902344 16.390625 47.328125 17.046875 47.03125 17.300781 C 46.742188 17.046875 46.179688 16.390625 46.078125 15.179688 L 45.054688 3.449219 C 44.890625 1.808594 45.78125 1.195312 45.78125 1.195312 L 41.542969 1.195312 C 41.613281 1.902344 41.523438 2.628906 41.226562 3.292969 L 37.078125 13.359375 L 32.101562 1.195312 L 28.253906 1.195312 C 28.253906 1.195312 29.144531 1.808594 29 3.449219 L 28.027344 14.640625 C 27.925781 14.722656 26.613281 15.703125 24.1875 15.703125 C 23.503906 15.703125 19.34375 15.703125 19.34375 15.703125 L 19.34375 9.804688 L 21.875 9.804688 C 23.859375 9.804688 24.699219 10.441406 24.699219 10.441406 L 25.070312 8.074219 L 19.34375 8.074219 L 19.34375 2.925781 C 19.34375 2.925781 21.1875 2.925781 22.558594 2.925781 C 24.90625 2.925781 26 3.910156 26 3.910156 L 26 1.195312 L 15.34375 1.195312 C 15.34375 1.195312 16.273438 1.808594 16.273438 3.449219 L 16.273438 15.179688 C 16.273438 16.820312 15.34375 17.433594 15.34375 17.433594 L 30.761719 17.433594 C 30.761719 17.433594 29.890625 16.820312 30.035156 15.179688 L 30.851562 5.75 L 35 15.867188 C 35.410156 16.820312 36.339844 17.445312 37.394531 17.445312 L 42.15625 5.894531 L 42.976562 15.191406 C 43.109375 16.828125 42.25 17.445312 42.25 17.445312 L 50.796875 17.445312 C 50.796875 17.445312 49.925781 16.828125 50.070312 15.191406 L 50.890625 5.761719 L 55.035156 15.878906 C 55.445312 16.828125 56.378906 17.453125 57.433594 17.453125 L 62.183594 5.894531 L 63.003906 15.191406 C 63.136719 16.828125 62.273438 17.445312 62.273438 17.445312 L 70.703125 17.445312 C 70.703125 17.445312 69.976562 16.828125 70.515625 15.191406 L 71.203125 12.960938 L 76.628906 12.960938 L 77.335938 15.191406 C 77.859375 16.828125 77.132812 17.445312 77.132812 17.445312 " clip-rule="nonzero"/></clipPath><clipPath id="e5fff41cfb"><rect x="0" width="83" y="0" height="18"/></clipPath><clipPath id="83dd12ace8"><rect x="0" width="83" y="0" height="64"/></clipPath><clipPath id="e7b36b28b8"><rect x="0" width="113" y="0" height="110"/></clipPath></defs><g clip-path="url(#ba42c5e8cc)"><g transform="matrix(1, 0, 0, 1, 2, 2)"><g clip-path="url(#e7b36b28b8)"><g clip-path="url(#bc85d9f6a3)"><g clip-path="url(#49721bd861)"><g><g clip-path="url(#5a0f6dceba)"><g clip-path="url(#5230ff564a)"><g clip-path="url(#f82c693743)"><path fill="#1787ff" d="M 0.371094 0.714844 L 112.421875 0.714844 L 112.421875 109.785156 L 0.371094 109.785156 Z M 0.371094 0.714844 " fill-opacity="1" fill-rule="nonzero"/></g></g></g></g></g></g><g transform="matrix(1, 0, 0, 1, 15, 23)"><g clip-path="url(#83dd12ace8)"><g clip-path="url(#fd61ec05fa)"><g clip-path="url(#b2b1932586)"><g><g clip-path="url(#b951dd037f)"><g clip-path="url(#3aff3fb6de)"><g clip-path="url(#af9e25b009)"><path fill="#ffffff" d="M 0.0742188 0.832031 L 82.820312 0.832031 L 82.820312 43.542969 L 0.0742188 43.542969 Z M 0.0742188 0.832031 " fill-opacity="1" fill-rule="nonzero"/></g></g></g></g></g></g><g clip-path="url(#66328a3bd2)"><g clip-path="url(#4cb2d73ad9)"><g transform="matrix(1, 0, 0, 1, 0, 46)"><g clip-path="url(#e5fff41cfb)"><g clip-path="url(#e8b65ad7b3)"><g clip-path="url(#2e17fa4f4a)"><path fill="#ffffff" d="M 0.804688 0.96875 L 82.074219 0.96875 L 82.074219 17.667969 L 0.804688 17.667969 Z M 0.804688 0.96875 " fill-opacity="1" fill-rule="nonzero"/></g></g></g></g></g></g></g></g></g></g></g></svg>