<svg xmlns="http://www.w3.org/2000/svg" xmlns:xlink="http://www.w3.org/1999/xlink" width="500" zoomAndPan="magnify" viewBox="0 0 375 112.499997" height="150" preserveAspectRatio="xMidYMid meet" version="1.0"><defs><clipPath id="5f0997a869"><path d="M 4.402344 18.378906 L 370.917969 18.378906 L 370.917969 93.917969 L 4.402344 93.917969 Z M 4.402344 18.378906 " clip-rule="nonzero"/></clipPath><clipPath id="8b0b3d562c"><path d="M 65.488281 53.90625 L 47.402344 53.90625 C 47.402344 53.90625 51.597656 56.765625 51.597656 64.148438 L 51.597656 84.585938 C 49.246094 85.324219 46.339844 85.832031 42.878906 85.832031 C 31.667969 85.832031 18.84375 77.527344 18.84375 55.980469 C 18.84375 33.695312 30.144531 26.222656 40.710938 26.222656 C 52.429688 26.222656 61.566406 35.957031 61.566406 35.957031 L 61.566406 21.65625 C 61.566406 21.65625 53.167969 18.378906 40.113281 18.378906 C 22.488281 18.378906 4.402344 30.097656 4.402344 55.933594 C 4.402344 83.15625 24.332031 93.628906 41.449219 93.628906 C 54.507812 93.628906 67.332031 91.046875 67.332031 91.046875 C 67.332031 91.046875 65.488281 88.183594 65.488281 78.726562 Z M 323.804688 65.484375 L 333.863281 32.867188 L 344.011719 65.484375 Z M 348.347656 92.570312 L 370.632812 92.570312 C 370.632812 92.570312 365.511719 89.800781 363.160156 82.417969 L 345.121094 27.332031 C 343.597656 22.578125 339.167969 19.394531 334.277344 19.394531 L 325.511719 19.394531 C 325.511719 19.394531 328.785156 22.164062 326.433594 29.542969 L 309.316406 82.417969 C 307.5625 87.632812 304.472656 90.585938 302.859375 91.832031 C 301.519531 90.585938 299.167969 87.632812 298.753906 82.417969 L 294.136719 29.542969 C 293.402344 22.164062 297.414062 19.394531 297.414062 19.394531 L 278.175781 19.394531 C 278.5 22.578125 278.082031 25.855469 276.746094 28.851562 L 258.058594 74.207031 L 235.683594 19.394531 L 218.335938 19.394531 C 218.335938 19.394531 222.351562 22.164062 221.703125 29.542969 L 217.089844 82.417969 C 216.628906 87.863281 214.046875 90.816406 212.707031 91.96875 C 211.417969 90.816406 208.878906 87.863281 208.417969 82.417969 L 203.804688 29.542969 C 203.066406 22.164062 207.078125 19.394531 207.078125 19.394531 L 187.980469 19.394531 C 188.300781 22.578125 187.886719 25.855469 186.546875 28.851562 L 167.863281 74.207031 L 145.441406 19.394531 L 128.09375 19.394531 C 128.09375 19.394531 132.109375 22.164062 131.460938 29.542969 L 127.078125 79.972656 C 126.617188 80.34375 120.710938 84.769531 109.777344 84.769531 C 106.6875 84.769531 87.953125 84.769531 87.953125 84.769531 L 87.953125 58.195312 L 99.351562 58.195312 C 108.300781 58.195312 112.085938 61.054688 112.085938 61.054688 L 113.746094 50.398438 L 87.953125 50.398438 L 87.953125 27.191406 C 87.953125 27.191406 96.257812 27.191406 102.441406 27.191406 C 113.007812 27.191406 117.945312 31.621094 117.945312 31.621094 L 117.945312 19.394531 L 69.914062 19.394531 C 69.914062 19.394531 74.113281 22.164062 74.113281 29.542969 L 74.113281 82.417969 C 74.113281 89.800781 69.914062 92.570312 69.914062 92.570312 L 139.398438 92.570312 C 139.398438 92.570312 135.476562 89.800781 136.121094 82.417969 L 139.8125 39.925781 L 158.496094 85.507812 C 160.34375 89.800781 164.542969 92.613281 169.292969 92.613281 L 190.746094 40.570312 L 194.4375 82.464844 C 195.039062 89.847656 191.164062 92.613281 191.164062 92.613281 L 229.6875 92.613281 C 229.6875 92.613281 225.765625 89.847656 226.410156 82.464844 L 230.101562 39.972656 L 248.785156 85.554688 C 250.632812 89.847656 254.832031 92.660156 259.582031 92.660156 L 280.988281 40.570312 L 284.679688 82.464844 C 285.28125 89.847656 281.40625 92.613281 281.40625 92.613281 L 319.375 92.613281 C 319.375 92.613281 316.097656 89.847656 318.542969 82.464844 L 321.636719 72.40625 L 346.089844 72.40625 L 349.273438 82.464844 C 351.625 89.847656 348.347656 92.613281 348.347656 92.613281 " clip-rule="nonzero"/></clipPath><clipPath id="8915b45b1c"><path d="M 0.402344 0.378906 L 366.707031 0.378906 L 366.707031 75.664062 L 0.402344 75.664062 Z M 0.402344 0.378906 " clip-rule="nonzero"/></clipPath><clipPath id="8ba51ecf2b"><path d="M 61.488281 35.90625 L 43.402344 35.90625 C 43.402344 35.90625 47.597656 38.765625 47.597656 46.148438 L 47.597656 66.585938 C 45.246094 67.324219 42.339844 67.832031 38.878906 67.832031 C 27.667969 67.832031 14.84375 59.527344 14.84375 37.980469 C 14.84375 15.695312 26.144531 8.222656 36.710938 8.222656 C 48.429688 8.222656 57.566406 17.957031 57.566406 17.957031 L 57.566406 3.65625 C 57.566406 3.65625 49.167969 0.378906 36.113281 0.378906 C 18.488281 0.378906 0.402344 12.097656 0.402344 37.933594 C 0.402344 65.15625 20.332031 75.628906 37.449219 75.628906 C 50.507812 75.628906 63.332031 73.046875 63.332031 73.046875 C 63.332031 73.046875 61.488281 70.183594 61.488281 60.726562 Z M 319.804688 47.484375 L 329.863281 14.867188 L 340.011719 47.484375 Z M 344.347656 74.570312 L 366.632812 74.570312 C 366.632812 74.570312 361.511719 71.800781 359.160156 64.417969 L 341.121094 9.332031 C 339.597656 4.578125 335.167969 1.394531 330.277344 1.394531 L 321.511719 1.394531 C 321.511719 1.394531 324.785156 4.164062 322.433594 11.542969 L 305.316406 64.417969 C 303.5625 69.632812 300.472656 72.585938 298.859375 73.832031 C 297.519531 72.585938 295.167969 69.632812 294.753906 64.417969 L 290.136719 11.542969 C 289.402344 4.164062 293.414062 1.394531 293.414062 1.394531 L 274.175781 1.394531 C 274.5 4.578125 274.082031 7.855469 272.746094 10.851562 L 254.058594 56.207031 L 231.683594 1.394531 L 214.335938 1.394531 C 214.335938 1.394531 218.351562 4.164062 217.703125 11.542969 L 213.089844 64.417969 C 212.628906 69.863281 210.046875 72.816406 208.707031 73.96875 C 207.417969 72.816406 204.878906 69.863281 204.417969 64.417969 L 199.804688 11.542969 C 199.066406 4.164062 203.078125 1.394531 203.078125 1.394531 L 183.980469 1.394531 C 184.300781 4.578125 183.886719 7.855469 182.546875 10.851562 L 163.863281 56.207031 L 141.441406 1.394531 L 124.09375 1.394531 C 124.09375 1.394531 128.109375 4.164062 127.460938 11.542969 L 123.078125 61.972656 C 122.617188 62.34375 116.710938 66.769531 105.777344 66.769531 C 102.6875 66.769531 83.953125 66.769531 83.953125 66.769531 L 83.953125 40.195312 L 95.351562 40.195312 C 104.300781 40.195312 108.085938 43.054688 108.085938 43.054688 L 109.746094 32.398438 L 83.953125 32.398438 L 83.953125 9.191406 C 83.953125 9.191406 92.257812 9.191406 98.441406 9.191406 C 109.007812 9.191406 113.945312 13.621094 113.945312 13.621094 L 113.945312 1.394531 L 65.914062 1.394531 C 65.914062 1.394531 70.113281 4.164062 70.113281 11.542969 L 70.113281 64.417969 C 70.113281 71.800781 65.914062 74.570312 65.914062 74.570312 L 135.398438 74.570312 C 135.398438 74.570312 131.476562 71.800781 132.121094 64.417969 L 135.8125 21.925781 L 154.496094 67.507812 C 156.34375 71.800781 160.542969 74.613281 165.292969 74.613281 L 186.746094 22.570312 L 190.4375 64.464844 C 191.039062 71.847656 187.164062 74.613281 187.164062 74.613281 L 225.6875 74.613281 C 225.6875 74.613281 221.765625 71.847656 222.410156 64.464844 L 226.101562 21.972656 L 244.785156 67.554688 C 246.632812 71.847656 250.832031 74.660156 255.582031 74.660156 L 276.988281 22.570312 L 280.679688 64.464844 C 281.28125 71.847656 277.40625 74.613281 277.40625 74.613281 L 315.375 74.613281 C 315.375 74.613281 312.097656 71.847656 314.542969 64.464844 L 317.636719 54.40625 L 342.089844 54.40625 L 345.273438 64.464844 C 347.625 71.847656 344.347656 74.613281 344.347656 74.613281 " clip-rule="nonzero"/></clipPath><clipPath id="0f2e7f259b"><rect x="0" width="367" y="0" height="76"/></clipPath></defs><g clip-path="url(#5f0997a869)"><g clip-path="url(#8b0b3d562c)"><g transform="matrix(1, 0, 0, 1, 4, 18)"><g clip-path="url(#0f2e7f259b)"><g clip-path="url(#8915b45b1c)"><g clip-path="url(#8ba51ecf2b)"><path fill="#000000" d="M 0.402344 0.378906 L 366.625 0.378906 L 366.625 75.621094 L 0.402344 75.621094 Z M 0.402344 0.378906 " fill-opacity="1" fill-rule="nonzero"/></g></g></g></g></g></g></svg>