<svg xmlns="http://www.w3.org/2000/svg" xmlns:xlink="http://www.w3.org/1999/xlink" width="153" zoomAndPan="magnify" viewBox="0 0 114.75 114.749999" height="153" preserveAspectRatio="xMidYMid meet" version="1.0"><defs><clipPath id="5ace972a32"><path d="M 0.859375 0.746094 L 83.664062 0.746094 L 83.664062 17.820312 L 0.859375 17.820312 Z M 0.859375 0.746094 " clip-rule="nonzero"/></clipPath><clipPath id="122c8815b0"><path d="M 14.667969 8.777344 L 10.578125 8.777344 C 10.578125 8.777344 11.527344 9.421875 11.527344 11.09375 L 11.527344 15.710938 C 10.996094 15.878906 10.339844 15.992188 9.558594 15.992188 C 7.023438 15.992188 4.121094 14.117188 4.121094 9.246094 C 4.121094 4.207031 6.679688 2.519531 9.066406 2.519531 C 11.714844 2.519531 13.78125 4.71875 13.78125 4.71875 L 13.78125 1.484375 C 13.78125 1.484375 11.882812 0.746094 8.929688 0.746094 C 4.945312 0.746094 0.859375 3.394531 0.859375 9.234375 C 0.859375 15.390625 5.363281 17.757812 9.234375 17.757812 C 12.183594 17.757812 15.085938 17.171875 15.085938 17.171875 C 15.085938 17.171875 14.667969 16.527344 14.667969 14.386719 Z M 73.0625 11.394531 L 75.335938 4.019531 L 77.632812 11.394531 Z M 78.613281 17.515625 L 83.648438 17.515625 C 83.648438 17.515625 82.492188 16.890625 81.960938 15.222656 L 77.882812 2.769531 C 77.539062 1.695312 76.535156 0.976562 75.429688 0.976562 L 73.449219 0.976562 C 73.449219 0.976562 74.191406 1.601562 73.660156 3.269531 L 69.789062 15.222656 C 69.390625 16.402344 68.695312 17.070312 68.328125 17.351562 C 68.027344 17.070312 67.496094 16.402344 67.402344 15.222656 L 66.359375 3.269531 C 66.191406 1.601562 67.097656 0.976562 67.097656 0.976562 L 62.75 0.976562 C 62.820312 1.695312 62.726562 2.433594 62.425781 3.113281 L 58.203125 13.367188 L 53.144531 0.976562 L 49.222656 0.976562 C 49.222656 0.976562 50.128906 1.601562 49.984375 3.269531 L 48.941406 15.222656 C 48.835938 16.453125 48.25 17.121094 47.949219 17.382812 C 47.65625 17.121094 47.082031 16.453125 46.980469 15.222656 L 45.9375 3.269531 C 45.769531 1.601562 46.675781 0.976562 46.675781 0.976562 L 42.359375 0.976562 C 42.429688 1.695312 42.335938 2.433594 42.035156 3.113281 L 37.8125 13.367188 L 32.742188 0.976562 L 28.820312 0.976562 C 28.820312 0.976562 29.726562 1.601562 29.582031 3.269531 L 28.589844 14.667969 C 28.488281 14.753906 27.152344 15.753906 24.679688 15.753906 C 23.980469 15.753906 19.746094 15.753906 19.746094 15.753906 L 19.746094 9.746094 L 22.324219 9.746094 C 24.347656 9.746094 25.203125 10.394531 25.203125 10.394531 L 25.578125 7.984375 L 19.746094 7.984375 L 19.746094 2.738281 C 19.746094 2.738281 21.625 2.738281 23.023438 2.738281 C 25.410156 2.738281 26.527344 3.738281 26.527344 3.738281 L 26.527344 0.976562 L 15.667969 0.976562 C 15.667969 0.976562 16.617188 1.601562 16.617188 3.269531 L 16.617188 15.222656 C 16.617188 16.890625 15.667969 17.515625 15.667969 17.515625 L 31.375 17.515625 C 31.375 17.515625 30.488281 16.890625 30.636719 15.222656 L 31.46875 5.617188 L 35.695312 15.921875 C 36.109375 16.890625 37.058594 17.527344 38.132812 17.527344 L 42.984375 5.761719 L 43.820312 15.234375 C 43.953125 16.902344 43.078125 17.527344 43.078125 17.527344 L 51.785156 17.527344 C 51.785156 17.527344 50.902344 16.902344 51.046875 15.234375 L 51.882812 5.625 L 56.105469 15.929688 C 56.523438 16.902344 57.472656 17.539062 58.546875 17.539062 L 63.386719 5.761719 L 64.21875 15.234375 C 64.355469 16.902344 63.480469 17.527344 63.480469 17.527344 L 72.0625 17.527344 C 72.0625 17.527344 71.320312 16.902344 71.875 15.234375 L 72.574219 12.957031 L 78.101562 12.957031 L 78.820312 15.234375 C 79.351562 16.902344 78.613281 17.527344 78.613281 17.527344 " clip-rule="nonzero"/></clipPath><clipPath id="7ea7c4a2e8"><path d="M 0.859375 0.746094 L 83.664062 0.746094 L 83.664062 17.820312 L 0.859375 17.820312 Z M 0.859375 0.746094 " clip-rule="nonzero"/></clipPath><clipPath id="95f42ec178"><path d="M 14.667969 8.777344 L 10.578125 8.777344 C 10.578125 8.777344 11.527344 9.421875 11.527344 11.09375 L 11.527344 15.710938 C 10.996094 15.878906 10.339844 15.992188 9.558594 15.992188 C 7.023438 15.992188 4.121094 14.117188 4.121094 9.246094 C 4.121094 4.207031 6.679688 2.519531 9.066406 2.519531 C 11.714844 2.519531 13.78125 4.71875 13.78125 4.71875 L 13.78125 1.484375 C 13.78125 1.484375 11.882812 0.746094 8.929688 0.746094 C 4.945312 0.746094 0.859375 3.394531 0.859375 9.234375 C 0.859375 15.390625 5.363281 17.757812 9.234375 17.757812 C 12.183594 17.757812 15.085938 17.171875 15.085938 17.171875 C 15.085938 17.171875 14.667969 16.527344 14.667969 14.386719 Z M 73.0625 11.394531 L 75.335938 4.019531 L 77.632812 11.394531 Z M 78.613281 17.515625 L 83.648438 17.515625 C 83.648438 17.515625 82.492188 16.890625 81.960938 15.222656 L 77.882812 2.769531 C 77.539062 1.695312 76.535156 0.976562 75.429688 0.976562 L 73.449219 0.976562 C 73.449219 0.976562 74.191406 1.601562 73.660156 3.269531 L 69.789062 15.222656 C 69.390625 16.402344 68.695312 17.070312 68.328125 17.351562 C 68.027344 17.070312 67.496094 16.402344 67.402344 15.222656 L 66.359375 3.269531 C 66.191406 1.601562 67.097656 0.976562 67.097656 0.976562 L 62.75 0.976562 C 62.820312 1.695312 62.726562 2.433594 62.425781 3.113281 L 58.203125 13.367188 L 53.144531 0.976562 L 49.222656 0.976562 C 49.222656 0.976562 50.128906 1.601562 49.984375 3.269531 L 48.941406 15.222656 C 48.835938 16.453125 48.25 17.121094 47.949219 17.382812 C 47.65625 17.121094 47.082031 16.453125 46.980469 15.222656 L 45.9375 3.269531 C 45.769531 1.601562 46.675781 0.976562 46.675781 0.976562 L 42.359375 0.976562 C 42.429688 1.695312 42.335938 2.433594 42.035156 3.113281 L 37.8125 13.367188 L 32.742188 0.976562 L 28.820312 0.976562 C 28.820312 0.976562 29.726562 1.601562 29.582031 3.269531 L 28.589844 14.667969 C 28.488281 14.753906 27.152344 15.753906 24.679688 15.753906 C 23.980469 15.753906 19.746094 15.753906 19.746094 15.753906 L 19.746094 9.746094 L 22.324219 9.746094 C 24.347656 9.746094 25.203125 10.394531 25.203125 10.394531 L 25.578125 7.984375 L 19.746094 7.984375 L 19.746094 2.738281 C 19.746094 2.738281 21.625 2.738281 23.023438 2.738281 C 25.410156 2.738281 26.527344 3.738281 26.527344 3.738281 L 26.527344 0.976562 L 15.667969 0.976562 C 15.667969 0.976562 16.617188 1.601562 16.617188 3.269531 L 16.617188 15.222656 C 16.617188 16.890625 15.667969 17.515625 15.667969 17.515625 L 31.375 17.515625 C 31.375 17.515625 30.488281 16.890625 30.636719 15.222656 L 31.46875 5.617188 L 35.695312 15.921875 C 36.109375 16.890625 37.058594 17.527344 38.132812 17.527344 L 42.984375 5.761719 L 43.820312 15.234375 C 43.953125 16.902344 43.078125 17.527344 43.078125 17.527344 L 51.785156 17.527344 C 51.785156 17.527344 50.902344 16.902344 51.046875 15.234375 L 51.882812 5.625 L 56.105469 15.929688 C 56.523438 16.902344 57.472656 17.539062 58.546875 17.539062 L 63.386719 5.761719 L 64.21875 15.234375 C 64.355469 16.902344 63.480469 17.527344 63.480469 17.527344 L 72.0625 17.527344 C 72.0625 17.527344 71.320312 16.902344 71.875 15.234375 L 72.574219 12.957031 L 78.101562 12.957031 L 78.820312 15.234375 C 79.351562 16.902344 78.613281 17.527344 78.613281 17.527344 " clip-rule="nonzero"/></clipPath><clipPath id="ba985561a9"><rect x="0" width="84" y="0" height="18"/></clipPath><clipPath id="33829fa228"><rect x="0" width="84" y="0" height="18"/></clipPath></defs><g transform="matrix(1, 0, 0, 1, 15, 48)"><g clip-path="url(#33829fa228)"><g clip-path="url(#5ace972a32)"><g clip-path="url(#122c8815b0)"><g><g clip-path="url(#ba985561a9)"><g clip-path="url(#7ea7c4a2e8)"><g clip-path="url(#95f42ec178)"><path fill="#1787ff" d="M 0.859375 0.746094 L 83.648438 0.746094 L 83.648438 17.753906 L 0.859375 17.753906 Z M 0.859375 0.746094 " fill-opacity="1" fill-rule="nonzero"/></g></g></g></g></g></g></g></g></svg>